<?xml version="1.0" encoding="UTF-8"?>
<svg xmlns="http://www.w3.org/2000/svg" viewBox="0 0 76 76">
  <defs>
    <style>.cls-1{fill:#fff;}.cls-2{fill:#4dbdeb;}.cls-3{fill:#0075a8;}.cls-4{fill:#00405c;}</style>
  </defs>
  <title>LinkOpportunities</title>
  <g id="Artboards">
    <g id="Full_Color" data-name="Full Color">
      <g id="Link_Opportunities" data-name="Link Opportunities">
        <g id="Container">
          <circle id="Background" class="cls-1" cx="38" cy="38" r="31"></circle>
          <path id="Circle" class="cls-2" d="M38,10A28,28,0,1,1,10,38,28,28,0,0,1,38,10m0-2A30,30,0,1,0,68,38,30,30,0,0,0,38,8Z"></path>
        </g>
        <g id="Illustration">
          <path id="Link-Lower" class="cls-3" d="M37.44,48.17a8.73,8.73,0,0,0,4-.75l4.18,4.13a6.67,6.67,0,0,0,6-6L39.48,33.52a6.59,6.59,0,0,0-4,1.92,6.32,6.32,0,0,0-1.08,1.4l-2.45-2.45a12.05,12.05,0,0,1,1.14-1.34,10,10,0,0,1,7.1-2.94h.7L55,44.22v.7a10,10,0,0,1-10,10h-.7Z"></path>
          <path id="Link-Upper" class="cls-4" d="M38.56,27.83a8.73,8.73,0,0,0-4,.75l-4.18-4.13a6.67,6.67,0,0,0-6,6L36.52,42.48a6.59,6.59,0,0,0,4-1.92,6.32,6.32,0,0,0,1.08-1.4l2.45,2.45A12.05,12.05,0,0,1,43,43a10,10,0,0,1-7.1,2.94h-.7L21.05,31.78v-.7a10,10,0,0,1,10-10h.7Z"></path>
        </g>
      </g>
    </g>
  </g>
</svg>
